<?xml version="1.0" standalone="no"?>
<!DOCTYPE svg PUBLIC "-//W3C//DTD SVG 20010904//EN"
 "http://www.w3.org/TR/2001/REC-SVG-20010904/DTD/svg10.dtd">
<svg version="1.0" xmlns="http://www.w3.org/2000/svg"
 width="2622.000000pt" height="2622.000000pt" viewBox="0 0 2622.000000 2622.000000"
 preserveAspectRatio="xMidYMid meet">
<metadata>
Created by potrace 1.14, written by Peter Selinger 2001-2017
</metadata>
<g transform="translate(0.000000,2622.000000) scale(0.100000,-0.100000)"
fill="#000000" stroke="none">
<path d="M25849 22784 c-621 -156 -2104 -728 -3349 -1291 -298 -135 -402 -183
-650 -300 -63 -30 -160 -75 -215 -101 -129 -60 -1067 -529 -1250 -625 -463
-242 -1043 -560 -1390 -762 -82 -48 -166 -96 -185 -107 -36 -20 -523 -312
-668 -400 -64 -39 -120 -62 -240 -99 -271 -82 -539 -167 -767 -244 -239 -80
-591 -201 -615 -212 -8 -3 -17 -7 -20 -8 -3 -1 -12 -4 -20 -7 -8 -3 -109 -41
-225 -83 -214 -79 -654 -248 -690 -265 -11 -5 -94 -39 -184 -76 -90 -36 -171
-70 -180 -74 -9 -4 -77 -34 -151 -65 -156 -66 -443 -193 -545 -240 -38 -18
-99 -46 -135 -63 -36 -16 -109 -51 -163 -76 -55 -25 -100 -46 -102 -46 -2 0
-38 -16 -82 -36 -43 -20 -103 -47 -133 -61 -30 -14 -100 -47 -155 -73 -336
-161 -291 -146 -500 -165 -22 -2 -65 -7 -95 -11 -30 -3 -71 -8 -90 -10 -19 -1
-53 -5 -75 -8 -22 -3 -60 -8 -85 -11 -25 -3 -63 -7 -85 -10 -22 -3 -58 -8 -80
-10 -69 -9 -118 -16 -180 -25 -33 -5 -78 -12 -101 -14 -64 -8 -328 -50 -369
-59 -11 -2 -42 -8 -68 -11 -27 -4 -59 -9 -70 -12 -18 -3 -118 -21 -347 -59
-14 -2 -43 -7 -65 -10 -22 -4 -71 -13 -110 -21 -38 -7 -86 -16 -105 -19 -45
-6 -84 -13 -140 -25 -25 -5 -56 -12 -70 -14 -25 -5 -163 -31 -210 -41 -14 -3
-38 -8 -55 -11 -16 -3 -50 -10 -75 -15 -25 -6 -54 -12 -65 -15 -11 -2 -45 -9
-75 -16 -69 -15 -59 -13 -100 -21 -19 -4 -37 -7 -40 -6 -3 0 -18 -5 -34 -11
-16 -6 -45 -13 -65 -16 -20 -3 -62 -12 -94 -20 -32 -8 -104 -26 -160 -39 -56
-13 -201 -49 -322 -80 -121 -31 -227 -58 -235 -60 -33 -8 -424 -117 -552 -154
l-138 -40 -87 18 c-49 11 -104 22 -123 25 -19 3 -60 10 -90 16 -30 6 -66 13
-80 16 -14 2 -36 7 -50 9 -14 3 -38 8 -55 10 -16 3 -52 10 -80 15 -46 9 -359
61 -450 75 -22 3 -85 12 -140 21 -55 8 -111 17 -125 19 -32 5 -238 32 -309 40
-30 4 -61 8 -70 10 -9 1 -45 6 -81 9 -36 4 -76 9 -90 11 -14 2 -54 7 -90 10
-36 3 -76 8 -90 10 -14 2 -51 7 -82 10 -139 13 -175 16 -208 20 -34 4 -90 9
-220 20 -36 3 -87 8 -115 10 -27 3 -81 7 -120 10 -38 3 -97 7 -130 10 -56 5
-97 7 -280 19 -38 3 -126 8 -195 11 -69 3 -134 9 -144 12 -10 3 -101 62 -202
132 -627 432 -1185 785 -1809 1143 -361 207 -721 396 -803 422 -53 17 -132 8
-198 -23 -222 -104 -345 -434 -244 -655 27 -60 76 -99 184 -147 238 -105 783
-387 1186 -612 69 -39 150 -84 180 -100 30 -17 88 -50 128 -74 41 -24 79 -43
84 -43 6 0 8 -3 4 -7 -3 -4 -62 -8 -129 -9 -256 -5 -313 -11 -371 -39 -232
-110 -230 -434 4 -547 50 -25 109 -27 350 -15 191 11 478 18 819 21 l293 2
157 -99 c184 -118 554 -367 734 -493 285 -200 367 -263 355 -271 -7 -4 -77
-36 -156 -70 -336 -146 -428 -206 -479 -313 -47 -98 -37 -190 29 -265 55 -63
127 -88 234 -83 78 4 88 8 270 95 104 50 248 116 319 148 72 31 144 63 160 70
17 7 52 23 79 34 l49 21 61 -47 c91 -71 722 -578 779 -626 126 -105 426 -365
465 -401 24 -23 50 -45 58 -49 11 -6 -11 -28 -83 -84 -404 -314 -477 -389
-518 -529 -87 -292 183 -485 480 -343 33 15 78 45 100 65 50 46 357 301 447
372 43 34 72 51 80 46 24 -15 582 -569 724 -720 22 -22 107 -112 190 -200 83
-87 166 -176 183 -196 l32 -37 -33 -34 c-40 -41 -140 -149 -188 -203 -177
-196 -243 -340 -236 -514 3 -72 8 -97 35 -152 73 -154 247 -234 427 -198 76
15 207 78 262 126 24 20 67 65 94 98 28 34 76 90 108 126 31 36 68 78 81 93
l24 28 80 -92 c44 -51 96 -110 116 -133 20 -23 132 -151 250 -286 390 -447
459 -506 405 -350 -44 126 -199 394 -434 750 -75 113 -153 229 -174 258 -22
29 -38 59 -36 67 11 49 1110 1159 1758 1775 97 92 208 196 335 315 77 72 171
159 209 195 39 36 75 70 81 75 45 40 183 166 210 190 55 51 189 171 220 197
l30 26 145 -65 c204 -91 426 -192 555 -253 181 -86 362 -169 393 -181 17 -6
22 -5 22 6 0 54 -374 308 -824 559 -65 36 -123 66 -130 66 -14 0 16 28 219
205 88 77 165 144 171 150 6 5 37 33 69 60 84 72 225 193 260 224 17 14 82 69
145 121 63 52 120 100 125 106 6 6 48 42 95 80 118 96 120 97 171 140 25 22
63 53 85 71 21 17 107 86 189 153 83 68 233 188 335 269 102 80 190 150 197
156 25 21 42 34 233 181 211 162 586 445 610 459 8 5 49 10 90 12 155 5 780
12 1177 13 396 1 462 6 399 30 -30 11 -218 46 -301 55 -32 4 -66 8 -75 10 -8
1 -51 6 -94 10 -43 4 -86 8 -95 10 -9 1 -56 6 -106 10 -49 3 -103 8 -120 10
-16 2 -77 7 -135 10 -58 4 -121 8 -140 10 -19 2 -100 6 -180 10 -80 4 -146 8
-147 9 -1 1 47 38 108 82 60 43 144 104 187 135 42 30 208 146 367 256 160
110 319 221 355 246 305 220 879 607 1275 861 50 32 138 89 198 127 59 38 111
69 117 69 5 0 42 11 82 24 79 27 754 233 803 246 17 4 181 51 365 104 184 54
344 99 355 102 11 2 43 11 70 19 28 8 172 49 320 90 243 68 390 115 418 132
31 19 -109 25 -208 9 -16 -3 -52 -8 -80 -11 -52 -6 -188 -25 -215 -30 -8 -1
-35 -6 -60 -10 -68 -10 -93 -14 -120 -20 -14 -3 -74 -14 -135 -25 -111 -20
-139 -25 -185 -34 -20 -3 -252 -51 -398 -82 -134 -28 -257 -56 -264 -60 -4 -3
-8 -3 -8 -1 0 3 28 22 63 42 105 64 500 295 503 295 1 0 38 21 81 46 95 57 91
55 333 191 390 220 760 421 1166 636 111 59 270 143 355 187 193 100 1305 656
1459 729 63 30 196 94 295 142 99 47 200 96 225 107 25 11 95 44 155 72 175
83 275 130 345 162 208 96 317 146 419 194 62 30 115 54 116 54 2 0 61 27 132
61 70 33 178 84 238 112 142 67 265 136 265 148 0 16 -78 6 -211 -27z m-9114
-4491 c-175 -108 -1020 -686 -1238 -847 -24 -18 -44 -21 -125 -22 -54 -1 -225
-5 -382 -8 l-285 -7 115 57 c63 31 156 75 205 99 256 121 306 145 309 145 2 0
46 20 97 44 254 118 536 241 864 377 132 55 254 106 270 113 17 8 62 25 100
40 39 14 77 31 85 36 8 5 22 10 30 10 8 0 -12 -17 -45 -37z m-1637 -1138 c-2
-1 -140 -106 -308 -232 -168 -126 -361 -272 -430 -326 -69 -53 -135 -105 -148
-114 -12 -10 -28 -23 -35 -28 -6 -6 -77 -62 -157 -125 -156 -122 -442 -351
-450 -360 -3 -3 -27 -23 -55 -45 -86 -68 -503 -413 -670 -555 -88 -74 -168
-141 -178 -149 -15 -12 -25 -10 -74 14 -31 14 -122 56 -202 92 -80 35 -166 74
-190 85 -71 31 -510 212 -579 237 -55 21 -60 25 -45 36 10 7 97 61 193 120
230 142 233 144 250 152 8 3 17 9 20 13 4 5 94 59 180 107 14 8 37 22 52 31
95 60 746 432 918 524 36 20 92 50 125 68 130 71 400 212 551 289 136 68 168
81 224 86 64 5 115 10 208 20 26 3 79 8 117 11 39 3 86 7 105 9 19 2 73 6 120
10 47 4 101 8 120 10 19 2 85 7 145 11 61 3 112 8 114 10 1 1 21 2 43 2 21 0
38 -2 36 -3z m-2618 -309 c0 -3 -39 -26 -87 -52 -49 -26 -108 -58 -133 -72
-25 -14 -70 -38 -100 -55 -30 -17 -111 -62 -180 -100 -69 -39 -145 -81 -170
-95 -25 -14 -72 -40 -105 -60 -33 -19 -80 -46 -105 -60 -75 -42 -100 -56 -245
-142 -77 -46 -153 -90 -170 -100 -16 -9 -94 -56 -172 -104 l-141 -86 -39 14
c-54 20 -434 137 -463 143 -8 1 -62 16 -120 33 -58 17 -114 33 -125 36 -154
36 -307 83 -290 89 11 4 31 11 45 15 193 67 1321 346 1635 405 17 3 73 14 125
25 52 11 120 24 150 29 30 6 64 12 75 15 100 22 252 54 300 62 34 6 309 61
313 63 1 0 2 -1 2 -3z m-6060 -581 c52 -3 120 -8 150 -10 30 -2 93 -7 140 -10
47 -3 108 -8 135 -10 28 -2 82 -7 120 -10 39 -3 90 -7 115 -10 25 -2 77 -7
115 -10 39 -3 88 -8 110 -10 22 -2 69 -7 105 -10 36 -4 76 -8 90 -10 14 -2 59
-7 100 -10 41 -3 84 -8 95 -10 11 -2 45 -7 75 -10 30 -3 64 -7 75 -10 11 -2
31 -4 45 -5 17 -1 7 -8 -35 -22 -266 -90 -785 -275 -937 -334 l-88 -34 -167
138 c-93 76 -229 186 -303 244 -74 59 -148 119 -165 133 l-30 25 80 -5 c44 -3
123 -7 175 -10z m2626 -310 c11 -2 45 -8 75 -14 30 -6 77 -13 104 -16 28 -4
57 -8 65 -10 18 -5 86 -17 175 -31 33 -5 424 -84 490 -99 11 -3 34 -7 50 -11
58 -11 440 -106 444 -109 2 -2 -19 -18 -45 -34 -27 -17 -54 -34 -60 -38 -5 -4
-18 -12 -27 -18 -117 -69 -996 -650 -1187 -786 -47 -33 -105 -74 -130 -91 -25
-17 -103 -72 -173 -122 -71 -50 -138 -98 -151 -106 -40 -27 -201 -144 -206
-150 -3 -3 -16 -13 -30 -21 l-25 -16 -242 236 c-237 232 -419 405 -498 472
-22 19 -44 39 -50 45 -5 6 -37 35 -71 65 -33 30 -97 87 -143 128 -45 41 -96
87 -114 102 -17 15 -29 30 -27 32 6 5 429 167 575 220 61 22 153 55 205 74
160 59 312 112 615 214 233 80 297 98 325 93 19 -4 44 -8 56 -9z m2440 -594
c148 -48 334 -112 414 -140 195 -70 524 -193 530 -198 2 -2 -9 -15 -25 -29
-90 -76 -571 -502 -645 -570 -19 -18 -44 -41 -56 -51 -25 -22 -184 -166 -230
-208 -31 -29 -180 -166 -239 -220 -24 -23 -172 -161 -315 -295 -157 -147 -483
-463 -738 -715 -172 -170 -317 -310 -321 -310 -4 0 -80 91 -169 202 -89 111
-170 212 -181 225 -10 13 -59 70 -107 128 -48 58 -101 121 -118 141 -17 19
-44 51 -61 71 -70 82 -295 337 -347 392 -9 10 -15 23 -12 28 8 12 402 306 684
510 417 301 1397 971 1556 1063 10 6 36 22 58 37 23 15 44 28 47 28 3 0 127
-40 275 -89z"/>
<path d="M160 6194 l0 -2794 603 0 602 0 0 1043 0 1042 580 1 c822 3 1000 9
1280 50 799 115 1275 485 1446 1122 11 42 22 87 25 100 10 55 14 80 19 122 3
25 10 77 14 115 9 73 7 481 -3 525 -3 14 -7 41 -10 60 -40 327 -187 652 -387
860 -259 269 -608 424 -1139 505 -41 6 -219 24 -305 31 -44 4 -675 8 -1402 9
l-1323 3 0 -2794z m2760 1673 c19 -4 53 -9 75 -12 22 -4 54 -9 70 -11 115 -18
253 -83 324 -154 99 -98 140 -215 146 -419 10 -331 -94 -515 -343 -604 -40
-15 -100 -31 -135 -37 -34 -5 -71 -12 -83 -14 -73 -15 -260 -19 -891 -21 -392
0 -714 1 -714 4 -1 3 -2 293 -3 644 l-1 638 760 -4 c418 -2 776 -7 795 -10z"/>
<path d="M5700 8941 c-1 -66 -1 -5491 -1 -5518 l1 -23 575 0 575 0 2 1931 3
1932 143 -184 c79 -101 155 -199 169 -217 14 -18 86 -110 160 -205 73 -94 146
-187 161 -206 15 -19 36 -46 47 -61 17 -23 74 -97 229 -295 23 -28 129 -165
180 -230 30 -38 149 -191 178 -229 88 -113 221 -284 233 -299 9 -10 45 -56 81
-104 69 -90 138 -178 189 -242 17 -21 41 -52 55 -71 14 -18 78 -101 143 -184
65 -83 130 -167 145 -186 15 -19 74 -96 132 -170 58 -74 137 -175 175 -225 38
-49 103 -133 145 -186 41 -53 111 -142 155 -199 44 -56 87 -111 95 -121 8 -10
55 -70 104 -133 l89 -116 527 0 527 0 0 2793 0 2794 -573 0 -574 0 0 -106 c0
-58 0 -895 0 -1858 0 -964 -4 -1753 -8 -1752 -4 0 -33 35 -64 77 -32 42 -99
131 -150 198 -51 66 -104 135 -118 153 -14 19 -37 47 -51 65 -14 17 -139 180
-279 361 -139 182 -274 357 -300 390 -25 33 -84 110 -130 170 -46 61 -87 112
-90 115 -3 3 -25 32 -50 65 -53 71 -183 238 -190 245 -3 3 -39 50 -80 105 -41
55 -79 105 -85 111 -5 7 -27 34 -47 60 -20 27 -74 96 -118 154 -45 58 -89 115
-98 127 -9 12 -34 43 -54 70 -21 26 -96 125 -168 218 -72 94 -136 177 -143
185 -7 8 -50 65 -97 125 -187 246 -442 576 -506 656 l-53 66 -595 0 -596 0 0
-46z"/>
<path d="M12119 8976 c-1 -6 -2 -1263 -3 -2793 l-1 -2783 577 0 578 0 2 1931
3 1930 55 -71 c30 -40 60 -77 65 -83 6 -7 48 -61 95 -122 46 -60 87 -112 90
-115 3 -3 25 -32 50 -65 25 -33 47 -62 50 -65 3 -3 102 -129 219 -280 117
-151 226 -291 241 -310 28 -35 337 -432 451 -579 34 -45 90 -116 428 -549 91
-118 212 -273 268 -345 57 -73 106 -136 111 -142 4 -5 79 -102 167 -215 87
-113 172 -221 187 -240 16 -19 32 -39 36 -45 32 -43 139 -182 147 -191 6 -6
37 -47 70 -90 33 -43 62 -81 65 -84 3 -3 28 -34 55 -70 55 -71 56 -72 115
-147 l42 -53 527 0 527 0 -2 2788 c-1 1533 -2 2790 -3 2793 0 3 -257 6 -571 6
-415 0 -570 -3 -571 -11 -1 -6 -2 -840 -3 -1853 0 -1013 -3 -1843 -6 -1846 -3
-2 -176 218 -385 490 -209 272 -390 507 -402 521 -12 15 -155 200 -318 412
-163 212 -306 399 -319 415 -35 45 -214 276 -239 309 -12 16 -38 50 -58 75
-28 36 -488 633 -799 1036 -25 33 -114 148 -197 256 l-152 196 -595 0 c-417 0
-596 -4 -597 -11z"/>
<path d="M18535 6196 l0 -2791 2210 0 2209 0 1 535 c0 294 -1 542 -3 550 -3
14 -184 15 -1629 15 -1034 0 -1627 4 -1631 10 -3 5 -6 1013 -6 2240 l-1 2230
-575 1 -575 2 0 -2792z"/>
</g>
</svg>
